<svg xmlns="http://www.w3.org/2000/svg" xmlns:xlink="http://www.w3.org/1999/xlink" width="1080" zoomAndPan="magnify" viewBox="0 0 810 809.999993" height="1080" preserveAspectRatio="xMidYMid meet" version="1.0"><defs><g/></defs><rect x="-81" width="972" fill="#ffffff" y="-80.999999" height="971.999992" fill-opacity="1"/><rect x="-81" width="972" fill="#ffffff" y="-80.999999" height="971.999992" fill-opacity="1"/><path fill="#043927" d="M 224.375 542.703125 C 220.9375 538.824219 218.878906 534.59375 217.683594 530.058594 C 216.683594 526.269531 214.625 525.089844 210.832031 525.222656 C 201.539062 525.546875 192.527344 524.40625 184.761719 518.539062 C 174.617188 510.871094 172.164062 500.015625 172.160156 488.175781 C 172.144531 436.289062 171.851562 384.398438 172.324219 332.511719 C 172.515625 311.535156 158.347656 305.800781 140.988281 307.652344 C 138.679688 307.898438 138.203125 309.605469 137.625 311.523438 C 132.496094 328.5625 119.59375 338.167969 102.371094 337.894531 C 86.667969 337.640625 73.671875 327.027344 69.28125 310.863281 C 64.433594 293.039062 75.097656 274.722656 93.773438 268.800781 C 110.699219 263.4375 131.113281 272.867188 136.109375 289.820312 C 138.367188 297.480469 142.210938 298.351562 148.488281 297.84375 C 164.761719 296.519531 177.546875 307.261719 180.960938 320.03125 C 182.074219 324.199219 182.605469 328.449219 182.589844 332.792969 C 182.53125 349.277344 182.539062 365.761719 182.582031 382.246094 C 182.621094 398.367188 190.566406 406.160156 206.84375 406.132812 C 207.96875 406.128906 209.113281 405.984375 210.210938 406.144531 C 214.824219 406.816406 216.699219 404.617188 218.019531 400.304688 C 222.472656 385.773438 236.511719 375.875 251.597656 376.0625 C 266.941406 376.253906 280.359375 386.125 285.003906 400.636719 C 290.617188 418.164062 280.957031 438.496094 264.203125 444.410156 C 245.332031 451.070312 225.394531 442.410156 218.730469 424.003906 C 216.613281 418.15625 214.023438 415.824219 207.644531 416.347656 C 199.097656 417.046875 190.945312 414.910156 183.929688 409.457031 C 181.730469 411.089844 182.621094 413.324219 182.617188 415.183594 C 182.542969 440.65625 182.5 466.132812 182.589844 491.609375 C 182.640625 506.910156 190.941406 514.9375 206.382812 514.933594 C 207.882812 514.933594 209.402344 514.765625 210.875 514.953125 C 214.660156 515.445312 216.503906 513.917969 217.695312 510.203125 C 222.203125 496.1875 231.445312 487.511719 246.414062 485.253906 C 265.765625 482.335938 283.625 496.03125 286.21875 515.816406 C 288.484375 533.101562 278.386719 546.894531 264.847656 552.734375 C 251.171875 558.628906 234.660156 554.707031 224.375 542.703125 M 78.957031 296.71875 C 77.34375 301.355469 78.015625 305.949219 79.335938 310.484375 C 82.871094 322.621094 96.863281 330.511719 109.007812 327.277344 C 123.074219 323.535156 131.34375 310.871094 128.28125 297.761719 C 125.527344 285.972656 116.714844 278.097656 105.339844 277.265625 C 93.503906 276.398438 83.875 283.230469 78.957031 296.71875 M 231.980469 503.628906 C 231.332031 504.550781 230.652344 505.445312 230.046875 506.390625 C 222.652344 517.910156 225.953125 533.511719 237.371094 541.070312 C 249.011719 548.769531 264.390625 545.878906 272.179688 534.527344 C 279.429688 523.953125 277.585938 508.996094 268.023438 500.855469 C 257.546875 491.9375 243.375 492.804688 231.980469 503.628906 M 246.585938 386.367188 C 237.113281 388.605469 230.722656 394.296875 227.445312 403.46875 C 222.820312 416.402344 230.261719 431.1875 243.5 435.375 C 257.089844 439.675781 271.550781 432.359375 275.375 419.234375 C 281.511719 398.179688 263.445312 383.5 246.585938 386.367188 Z M 246.585938 386.367188 " fill-opacity="1" fill-rule="nonzero"/><g fill="#043927" fill-opacity="1"><g transform="translate(297.236297, 496.673083)"><g><path d="M 5.15625 -1.546875 L 11.328125 -3.09375 L 11.328125 -69.015625 L 5.15625 -70.5625 L 5.15625 -72.09375 L 33.984375 -72.09375 C 45.390625 -72.09375 53.5625 -70.222656 58.5 -66.484375 C 63.445312 -62.742188 65.921875 -57.234375 65.921875 -49.953125 C 65.921875 -42.671875 63.445312 -37.160156 58.5 -33.421875 C 53.5625 -29.679688 45.390625 -27.8125 33.984375 -27.8125 L 28.328125 -27.8125 L 28.328125 -3.09375 L 34.5 -1.546875 L 34.5 0 L 5.15625 0 Z M 33.984375 -30.390625 C 38.316406 -30.390625 41.800781 -32.035156 44.4375 -35.328125 C 47.082031 -38.617188 48.40625 -43.492188 48.40625 -49.953125 C 48.40625 -56.335938 47.082031 -61.195312 44.4375 -64.53125 C 41.800781 -67.863281 38.316406 -69.53125 33.984375 -69.53125 L 28.328125 -69.53125 L 28.328125 -30.390625 Z M 33.984375 -30.390625 "/></g></g></g><g fill="#043927" fill-opacity="1"><g transform="translate(366.758671, 496.673083)"><g><path d="M 20.078125 -1.546875 L 26.265625 -3.09375 L 26.265625 -26.78125 L 5.15625 -69.015625 L 0 -70.5625 L 0 -72.09375 L 12.875 -72.09375 C 16.445312 -72.09375 19.3125 -71.335938 21.46875 -69.828125 C 23.632812 -68.316406 25.40625 -66.15625 26.78125 -63.34375 L 42.03125 -32.953125 L 57.6875 -67.46875 L 49.953125 -70.5625 L 49.953125 -72.09375 L 69.53125 -72.09375 L 69.53125 -70.5625 L 61.28125 -67.46875 L 43.265625 -27.8125 L 43.265625 -3.09375 L 49.4375 -1.546875 L 49.4375 0 L 20.078125 0 Z M 20.078125 -1.546875 "/></g></g></g><g fill="#043927" fill-opacity="1"><g transform="translate(435.251077, 496.673083)"><g><path d="M 33.46875 1.546875 C 28.25 1.546875 23.441406 0.0703125 19.046875 -2.875 C 14.660156 -5.832031 11.160156 -10.144531 8.546875 -15.8125 C 5.941406 -21.476562 4.640625 -28.222656 4.640625 -36.046875 C 4.640625 -43.941406 5.992188 -50.722656 8.703125 -56.390625 C 11.410156 -62.054688 15.21875 -66.347656 20.125 -69.265625 C 25.039062 -72.179688 30.726562 -73.640625 37.1875 -73.640625 C 41.09375 -73.640625 45.039062 -72.507812 49.03125 -70.25 C 50.539062 -69.425781 52.050781 -68.328125 53.5625 -66.953125 C 54.726562 -68.734375 55.929688 -70.140625 57.171875 -71.171875 C 58.398438 -72.066406 59.082031 -72.546875 59.21875 -72.609375 L 61.796875 -72.609375 L 61.796875 -53.046875 L 57.6875 -53.046875 C 56.789062 -56.335938 55.445312 -59.320312 53.65625 -62 C 52.007812 -64.613281 49.96875 -66.773438 47.53125 -68.484375 C 45.09375 -70.203125 42.296875 -71.0625 39.140625 -71.0625 C 34.398438 -71.0625 30.46875 -68.316406 27.34375 -62.828125 C 24.21875 -57.335938 22.65625 -48.410156 22.65625 -36.046875 C 22.65625 -23.691406 24.046875 -14.9375 26.828125 -9.78125 C 29.609375 -4.632812 33.195312 -2.0625 37.59375 -2.0625 C 40.132812 -2.0625 42.4375 -3.4375 44.5 -6.1875 C 45.25 -7.207031 46.035156 -8.578125 46.859375 -10.296875 L 46.859375 -33.984375 L 40.6875 -35.53125 L 40.6875 -37.078125 L 70.046875 -37.078125 L 70.046875 -35.53125 L 63.859375 -33.984375 L 63.859375 0.515625 L 62.3125 0.515625 C 57.300781 0.515625 53.488281 -0.859375 50.875 -3.609375 C 49.707031 -4.835938 48.882812 -6.207031 48.40625 -7.71875 C 47.445312 -6.007812 46.316406 -4.46875 45.015625 -3.09375 C 41.921875 0 38.070312 1.546875 33.46875 1.546875 Z M 33.46875 1.546875 "/></g></g></g><g fill="#043927" fill-opacity="1"><g transform="translate(507.348348, 496.673083)"><g><path d="M 5.15625 0 L 5.15625 -1.546875 L 11.328125 -3.09375 L 11.328125 -69.015625 L 5.15625 -70.5625 L 5.15625 -72.09375 L 34.5 -72.09375 L 34.5 -70.5625 L 28.328125 -69.015625 L 28.328125 -3.09375 L 34.5 -1.546875 L 34.5 0 Z M 5.15625 0 "/></g></g></g><g fill="#043927" fill-opacity="1"><g transform="translate(547.00185, 496.673083)"><g><path d="M 18.03125 -1.546875 L 24.203125 -3.09375 L 24.203125 -69.53125 L 12.359375 -69.53125 C 12.359375 -65.332031 11.226562 -61.3125 8.96875 -57.46875 C 8 -55.894531 6.898438 -54.59375 5.671875 -53.5625 L 2.578125 -53.5625 L 2.578125 -72.09375 L 62.828125 -72.09375 L 62.828125 -53.5625 L 59.734375 -53.5625 C 58.429688 -54.59375 57.300781 -55.894531 56.34375 -57.46875 C 54.144531 -61.175781 53.046875 -65.195312 53.046875 -69.53125 L 41.203125 -69.53125 L 41.203125 -3.09375 L 47.375 -1.546875 L 47.375 0 L 18.03125 0 Z M 18.03125 -1.546875 "/></g></g></g><g fill="#043927" fill-opacity="1"><g transform="translate(612.404373, 496.673083)"><g><path d="M -2.0625 -1.546875 L 6.1875 -4.640625 L 34.5 -73.125 L 37.59375 -73.125 L 66.953125 -3.09375 L 72.09375 -1.546875 L 72.09375 0 L 59.734375 0 C 56.171875 0 53.253906 -0.804688 50.984375 -2.421875 C 48.722656 -4.035156 47.039062 -6.144531 45.9375 -8.75 L 40.6875 -21.109375 L 16.0625 -21.109375 L 9.265625 -4.640625 L 17 -1.546875 L 17 0 L -2.0625 0 Z M 17.09375 -23.6875 L 39.65625 -23.6875 L 28.328125 -50.78125 Z M 17.09375 -23.6875 "/></g></g></g><g fill="#043927" fill-opacity="1"><g transform="translate(682.441754, 496.673083)"><g><path d="M 5.15625 0 L 5.15625 -1.546875 L 11.328125 -3.09375 L 11.328125 -69.015625 L 5.15625 -70.5625 L 5.15625 -72.09375 L 34.5 -72.09375 L 34.5 -70.5625 L 28.328125 -69.015625 L 28.328125 -3.09375 L 34.5 -1.546875 L 34.5 0 Z M 5.15625 0 "/></g></g></g></svg>